<?xml version="1.0" encoding="utf-8"?>
<!-- Generator: Adobe Illustrator 23.0.1, SVG Export Plug-In . SVG Version: 6.00 Build 0)  -->
<svg version="1.1" id="Layer_1" height="18" width="18" xmlns="http://www.w3.org/2000/svg" xmlns:xlink="http://www.w3.org/1999/xlink" x="0px" y="0px"
	 viewBox="0 0 512 512" style="enable-background:new 0 0 512 512;" xml:space="preserve">
<style type="text/css">
	.st0{fill:#841245;}
</style>
<path class="st0" d="M77.77,78.94h-0.1c-5.24,0-9.49,4.25-9.49,9.49c0,5.24,4.25,9.49,9.49,9.49h0.1c5.24,0,9.49-4.25,9.49-9.49
	C87.26,83.19,83.01,78.94,77.77,78.94z"/>
<path class="st0" d="M124.78,78.94h-0.1c-5.24,0-9.49,4.25-9.49,9.49c0,5.24,4.25,9.49,9.49,9.49h0.1c5.24,0,9.49-4.25,9.49-9.49
	C134.28,83.19,130.03,78.94,124.78,78.94z"/>
<path class="st0" d="M171.8,78.94h-0.1c-5.24,0-9.49,4.25-9.49,9.49c0,5.24,4.25,9.49,9.49,9.49h0.1c5.24,0,9.49-4.25,9.49-9.49
	C181.29,83.19,177.04,78.94,171.8,78.94z"/>
<path class="st0" d="M435.75,78.94H252.61c-5.24,0-9.49,4.25-9.49,9.49c0,5.24,4.25,9.49,9.49,9.49h183.13
	c5.24,0,9.49-4.25,9.49-9.49C445.24,83.19,440.99,78.94,435.75,78.94z"/>
<path class="st0" d="M263.54,462.47c-2.5,0-4.94,1.02-6.71,2.78c-1.76,1.76-2.78,4.22-2.78,6.71c0,2.5,1.02,4.95,2.78,6.71
	c1.78,1.76,4.22,2.78,6.71,2.78s4.95-1.02,6.71-2.78c1.77-1.76,2.78-4.22,2.78-6.71c0-2.5-1.01-4.95-2.78-6.71
	C268.49,463.49,266.04,462.47,263.54,462.47z"/>
<path class="st0" d="M469.84,33.48H44.16C27.53,33.48,14,47.01,14,63.64V451.3c0,16.63,13.53,30.16,30.16,30.16h179.62
	c5.24,0,9.49-4.25,9.49-9.49c0-5.24-4.25-9.49-9.49-9.49H44.16c-6.16,0-11.17-5.01-11.17-11.17V143.39h448.03V451.3
	c0,6.16-5.01,11.17-11.17,11.17h-167.6c-5.24,0-9.49,4.25-9.49,9.49c0,5.24,4.25,9.49,9.49,9.49h167.6
	c16.63,0,30.16-13.53,30.16-30.16V63.64C500,47.01,486.47,33.48,469.84,33.48z M32.98,124.4V63.64c0-6.16,5.01-11.17,11.17-11.17
	h425.69c6.16,0,11.17,5.01,11.17,11.17v60.77L32.98,124.4L32.98,124.4z"/>
<path class="st0" d="M183,251.8c0-18.84-15.33-34.17-34.17-34.17h-31.96c-5.24,0-9.49,4.25-9.49,9.49v98.72
	c0,5.24,4.25,9.49,9.49,9.49h31.96c18.84,0,34.17-15.33,34.17-34.17c0-9.7-4.06-18.45-10.57-24.68
	C178.93,270.26,183,261.5,183,251.8z M164.01,301.16c0,8.37-6.82,15.19-15.19,15.19h-22.47v-30.38h22.47
	C157.2,285.98,164.01,292.79,164.01,301.16z M126.36,266.99v-30.38h22.47c8.38,0,15.19,6.82,15.19,15.19
	c0,8.37-6.81,15.19-15.19,15.19H126.36z"/>
<path class="st0" d="M210.15,217.63c-5.24,0-9.49,4.25-9.49,9.49v76.76c0,17.34,14.11,31.45,31.45,31.45c5.24,0,9.49-4.25,9.49-9.49
	c0-5.24-4.25-9.49-9.49-9.49c-6.87,0-12.46-5.59-12.46-12.46v-76.76C219.65,221.88,215.4,217.63,210.15,217.63z"/>
<path class="st0" d="M322.37,300.96c0-18.95-15.42-34.38-34.37-34.38c-18.95,0-34.37,15.42-34.37,34.38
	c0,18.95,15.42,34.37,34.37,34.37C306.95,335.33,322.37,319.92,322.37,300.96z M272.61,300.96c0-8.49,6.9-15.39,15.39-15.39
	s15.39,6.9,15.39,15.39c0,8.48-6.9,15.39-15.39,15.39C279.51,316.35,272.61,309.45,272.61,300.96z"/>
<path class="st0" d="M372.25,361.91c-8.48,0-15.39-6.9-15.39-15.39c0-5.24-4.25-9.49-9.49-9.49c-5.24,0-9.49,4.25-9.49,9.49
	c0,18.95,15.42,34.37,34.37,34.37c18.95,0,34.38-15.42,34.38-34.37v-45.56c0-18.95-15.42-34.38-34.38-34.38
	c-18.95,0-34.37,15.42-34.37,34.38c0,18.95,15.42,34.37,34.37,34.37c5.53,0,10.76-1.32,15.39-3.65v14.84
	C387.64,355.01,380.74,361.91,372.25,361.91z M372.25,316.35c-8.48,0-15.39-6.9-15.39-15.39c0-8.49,6.9-15.39,15.39-15.39
	c8.49,0,15.39,6.9,15.39,15.39C387.64,309.45,380.74,316.35,372.25,316.35z"/>
<path class="st0" d="M116.87,428.36h280.27c5.24,0,9.49-4.25,9.49-9.49c0-5.24-4.25-9.49-9.49-9.49H116.87
	c-5.24,0-9.49,4.25-9.49,9.49C107.38,424.11,111.63,428.36,116.87,428.36z"/>
</svg>
