<?xml version="1.0" encoding="utf-8"?>
<!-- Generator: Adobe Illustrator 23.0.1, SVG Export Plug-In . SVG Version: 6.00 Build 0)  -->
<svg version="1.1" id="Layer_1" height="18" width="18" xmlns="http://www.w3.org/2000/svg" xmlns:xlink="http://www.w3.org/1999/xlink" x="0px" y="0px"
	 viewBox="0 0 512 512" style="enable-background:new 0 0 512 512;" xml:space="preserve">
<style type="text/css">
	.st0{fill:#841245;}
</style>
<g>
	<path class="st0" d="M505.05,344.04c0-72.6-48.92-136.03-117.9-155.15c-4.34-101.06-87.89-181.94-190-181.94
		C92.27,6.95,6.95,92.27,6.95,197.14c0,34.18,9.1,67.46,26.37,96.67L7.65,386.63l92.82-25.67c26.86,15.88,57.15,24.83,88.42,26.18
		c19.11,68.99,82.55,117.91,155.15,117.91c28.98,0,57.16-7.72,81.92-22.38l78.38,21.68l-21.68-78.38
		C497.33,401.2,505.05,373.02,505.05,344.04z M105.08,329.4l-55.57,15.37l15.37-55.57l-3.5-5.48
		c-16.51-25.83-25.24-55.77-25.24-86.59c0-88.78,72.23-161,161-161s161,72.23,161,161s-72.23,161-161,161
		c-30.81,0-60.75-8.73-86.59-25.24L105.08,329.4z M462.49,462.49l-41.23-11.41l-5.51,3.58c-21.35,13.87-46.14,21.2-71.71,21.2
		c-57.06,0-107.21-36.9-124.97-89.8c87.38-10.07,156.92-79.61,166.99-166.99c52.9,17.77,89.8,67.91,89.8,124.97
		c0,25.56-7.33,50.36-21.2,71.71l-3.58,5.51L462.49,462.49z"/>
	<path class="st0" d="M182.55,270.59h29.18v29.18h-29.18V270.59z"/>
	<path class="st0" d="M226.33,152.88c0,8.29-3.37,15.94-9.5,21.54l-34.28,31.37v35.61h29.18v-22.76l24.8-22.69
		c12.06-11.04,18.98-26.74,18.98-43.07c0-32.19-26.18-58.37-58.37-58.37s-58.37,26.18-58.37,58.37h29.18
		c0-16.09,13.09-29.19,29.19-29.19S226.33,136.79,226.33,152.88z"/>
</g>
</svg>
