<?xml version="1.0" encoding="utf-8"?>
<!-- Generator: Adobe Illustrator 23.0.1, SVG Export Plug-In . SVG Version: 6.00 Build 0)  -->
<svg version="1.1" id="Layer_1" height="20" width="28" xmlns="http://www.w3.org/2000/svg" xmlns:xlink="http://www.w3.org/1999/xlink" x="0px" y="0px"
	 viewBox="0 0 512 512" style="enable-background:new 0 0 512 512;" xml:space="preserve">
<style type="text/css">
	.st0{fill:url(#SVGID_1_);}
</style>
<g id="Artwork_29">
	<g>
		<g>
			<linearGradient id="SVGID_1_" gradientUnits="userSpaceOnUse" x1="3082.4141" y1="278.449" x2="-367.0392" y2="253.2705">
				<stop  offset="0" style="stop-color:#FBB03B"/>
				<stop  offset="1" style="stop-color:#29ABE2"/>
			</linearGradient>
			<path class="st0" d="M351.3,18.95h-49.8c-38.1,0-65.47,9.04-82.1,27.12c-16.64,18.09-24.95,44.73-24.95,79.93v33.55
				c0,8.87-7.19,16.06-16.05,16.06h-17.21c-8.86,0-16.05,7.19-16.05,16.05v50.28c0,8.87,7.19,16.05,16.05,16.05h17.21
				c8.87,0,16.05,7.19,16.05,16.06v206.94c0,8.87,7.19,16.05,16.06,16.05h66.81c8.87,0,16.05-7.19,16.05-16.05V274.05
				c0-8.87,7.19-16.05,16.05-16.05h33.75c8.87,0,16.81-7.15,17.74-15.96l5.33-50.47c0.93-8.82-5.5-15.96-14.37-15.96h-42.45
				c-8.87,0-16.05-7.19-16.05-16.06v-25.14c0-6.19,0.29-10.98,0.87-14.36c0.58-3.38,1.88-6.72,3.92-10.01
				c2.03-3.28,5.32-5.56,9.86-6.82c4.54-1.25,10.59-1.89,18.13-1.89h25.14c8.87,0,16.05-7.19,16.05-16.05V35.01
				C367.35,26.14,360.17,18.95,351.3,18.95"/>
		</g>
	</g>
</g>
</svg>
