<?xml version="1.0" encoding="utf-8"?>
<!-- Generator: Adobe Illustrator 23.0.1, SVG Export Plug-In . SVG Version: 6.00 Build 0)  -->
<svg version="1.1" id="Layer_1" width="14" height="16" xmlns="http://www.w3.org/2000/svg" xmlns:xlink="http://www.w3.org/1999/xlink" x="0px" y="0px"
	 viewBox="0 0 512 512" style="enable-background:new 0 0 512 512;" xml:space="preserve">
<style type="text/css">
	.st0{fill:url(#SVGID_1_);}
	.st1{fill:#FFFFFF;}
</style>
<g>
	<g>
		<radialGradient id="SVGID_1_" cx="259.8882" cy="627.1249" r="689.5769" gradientUnits="userSpaceOnUse">
			<stop  offset="0" style="stop-color:#3B5998"/>
			<stop  offset="0.301" style="stop-color:#3B5998"/>
			<stop  offset="1" style="stop-color:#5F83CF"/>
		</radialGradient>
		<path class="st0" d="M512,406.82c0,58.1-47.08,105.17-105.16,105.17H105.17C47.09,511.99,0,464.92,0,406.82V105.17
			C0,47.08,47.09,0.01,105.17,0.01h301.67C464.92,0.01,512,47.08,512,105.17V406.82z"/>
		<path class="st1" d="M393.66,140.75h47.23V66.51h-58.65l0,0h-12.13c0,0-44.5-1.1-72.87,35.77c0,0-19.32,18.22-19.62,71.56h-0.01
			v55.68h-69.96v78.83h69.96v203.64h80.69V308.35h69.41l9.67-78.83H358.3v-55.68h-0.02C358.47,167.62,361.24,140.19,393.66,140.75z"
			/>
	</g>
</g>
</svg>
