<?xml version="1.0" encoding="utf-8"?>
<!-- Generator: Adobe Illustrator 23.0.1, SVG Export Plug-In . SVG Version: 6.00 Build 0)  -->
<svg version="1.1" id="Layer_1" height="23" width="23" xmlns="http://www.w3.org/2000/svg" xmlns:xlink="http://www.w3.org/1999/xlink" x="0px" y="0px"
	 viewBox="0 0 512 512" style="enable-background:new 0 0 512 512;" xml:space="preserve">
<style type="text/css">
	.st0{fill:url(#SVGID_1_);}
	.st1{fill:url(#SVGID_2_);}
</style>
<g>
	<g>
		<g>
			<linearGradient id="SVGID_1_" gradientUnits="userSpaceOnUse" x1="516.1983" y1="217.6427" x2="-55.5639" y2="262.4673">
				<stop  offset="0" style="stop-color:#FBB03B"/>
				<stop  offset="1" style="stop-color:#29ABE2"/>
			</linearGradient>
			<path class="st0" d="M461.94,210.66c-3.96-1.65-8.55-0.74-11.58,2.3l-65.6,65.58c-4.46,4.47-10.11,7.48-16.27,8.72l-53.13,10.63
				c-10.58,2.14-21.29-1.22-28.78-8.71c-7.55-7.56-10.81-18.33-8.72-28.79l9.37-46.88H117.87c-5.87,0-10.63-4.75-10.63-10.63
				c0-5.87,4.75-10.63,10.63-10.63h178.36c0.37-0.41,0.58-0.92,0.98-1.32l41.19-41.18H117.87c-5.87,0-10.63-4.75-10.63-10.63
				c0-5.87,4.75-10.63,10.63-10.63h233.75c2.26,0,4.24,0.86,5.96,2.07l68.95-68.94c5.81-5.82,12.85-10.4,20.92-13.61
				c3.67-1.46,6.23-4.86,6.62-8.79c0.42-3.94-1.41-7.77-4.71-9.95c-6.99-4.6-15.07-7.02-23.37-7.02H43.5
				C20.07,22.25,1,41.31,1,64.75v414.38c0,4.3,2.59,8.18,6.56,9.82c1.31,0.55,2.7,0.81,4.07,0.81c2.76,0,5.48-1.08,7.51-3.11
				L122.27,383.5H426c23.43,0,42.5-19.06,42.5-42.5V220.47C468.5,216.18,465.91,212.3,461.94,210.66z M245.38,277.25h-127.5
				c-5.87,0-10.63-4.75-10.63-10.63c0-5.87,4.75-10.63,10.63-10.63h127.5c5.87,0,10.63,4.75,10.63,10.63
				C256,272.5,251.25,277.25,245.38,277.25z"/>
			<linearGradient id="SVGID_2_" gradientUnits="userSpaceOnUse" x1="511.7879" y1="161.3857" x2="-59.9742" y2="206.2103">
				<stop  offset="0" style="stop-color:#FBB03B"/>
				<stop  offset="1" style="stop-color:#29ABE2"/>
			</linearGradient>
			<path class="st1" d="M470.33,64.75c-10.73,0-21.21,4.35-28.76,11.91L312.24,205.97c-1.49,1.48-2.49,3.37-2.91,5.43l-10.63,53.15
				c-0.71,3.49,0.39,7.09,2.91,9.6c2.01,2.01,4.73,3.11,7.51,3.11c0.69,0,1.39-0.07,2.07-0.21l53.11-10.63
				c2.07-0.42,3.96-1.42,5.44-2.91l129.35-129.33c0,0,0,0,0-0.01c7.57-7.57,11.91-18.05,11.91-28.75
				C511,82.99,492.76,64.75,470.33,64.75z M453.48,149.75L426,122.27l15.02-15.02l27.48,27.48L453.48,149.75z"/>
		</g>
	</g>
</g>
</svg>
