<?xml version="1.0" encoding="utf-8"?>
<!-- Generator: Adobe Illustrator 23.0.1, SVG Export Plug-In . SVG Version: 6.00 Build 0)  -->
<svg version="1.1" id="Layer_1" height="23" width="23" xmlns="http://www.w3.org/2000/svg" xmlns:xlink="http://www.w3.org/1999/xlink" x="0px" y="0px"
	 viewBox="0 0 512 512" style="enable-background:new 0 0 512 512;" xml:space="preserve">
<style type="text/css">
	.st0{fill:url(#SVGID_1_);}
	.st1{fill:url(#SVGID_2_);}
</style>
<g>
	<g>
		<g>
			<linearGradient id="SVGID_1_" gradientUnits="userSpaceOnUse" x1="525.518" y1="264.0314" x2="-44.482" y2="256.0314">
				<stop  offset="0" style="stop-color:#FBB03B"/>
				<stop  offset="1" style="stop-color:#29ABE2"/>
			</linearGradient>
			<path class="st0" d="M503.4,231.88L273.68,22.57c-10.08-9.19-25.29-9.19-35.37,0L8.6,231.89c-8.08,7.36-10.74,18.7-6.8,28.89
				c3.95,10.19,13.56,16.77,24.48,16.77h36.69v209.72c0,8.32,6.74,15.06,15.06,15.06h125.91c8.32,0,15.06-6.74,15.06-15.06V359.93
				h74v127.34c0,8.32,6.74,15.06,15.06,15.06h125.91c8.32,0,15.06-6.74,15.06-15.06V277.55h36.7c10.93,0,20.54-6.58,24.48-16.77
				C514.15,250.59,511.48,239.25,503.4,231.88z"/>
		</g>
	</g>
	<g>
		<g>
			<linearGradient id="SVGID_2_" gradientUnits="userSpaceOnUse" x1="527.8258" y1="99.6028" x2="-42.1742" y2="91.6028">
				<stop  offset="0" style="stop-color:#FBB03B"/>
				<stop  offset="1" style="stop-color:#29ABE2"/>
			</linearGradient>
			<path class="st1" d="M445.09,45.73H343.97l116.18,105.64V60.79C460.15,52.47,453.41,45.73,445.09,45.73z"/>
		</g>
	</g>
</g>
</svg>
