<?xml version="1.0" encoding="utf-8"?>
<!-- Generator: Adobe Illustrator 23.0.1, SVG Export Plug-In . SVG Version: 6.00 Build 0)  -->
<svg version="1.1" id="Layer_1" height="18" width="18" xmlns="http://www.w3.org/2000/svg" xmlns:xlink="http://www.w3.org/1999/xlink" x="0px" y="0px"
	 viewBox="0 0 512 512" style="enable-background:new 0 0 512 512;" xml:space="preserve">
<style type="text/css">
	.st0{fill:#841245;}
</style>
<g>
	<path class="st0" d="M222.79,430.33c-13.75,0-24.9,11.15-24.9,24.9c0,13.75,11.15,24.9,24.9,24.9s24.9-11.15,24.9-24.9
		C247.68,441.49,236.54,430.35,222.79,430.33z M222.79,463.54c-4.58,0-8.3-3.72-8.3-8.3c0-4.58,3.72-8.3,8.3-8.3s8.3,3.72,8.3,8.3
		C231.09,459.82,227.38,463.53,222.79,463.54z"/>
	<circle class="st0" cx="181.29" cy="48.46" r="8.3"/>
	<path class="st0" d="M214.49,56.76h58.11c4.58,0,8.3-3.72,8.3-8.3s-3.72-8.3-8.3-8.3h-58.11c-4.58,0-8.3,3.72-8.3,8.3
		S209.91,56.76,214.49,56.76z"/>
	<path class="st0" d="M430.33,197.89v-66.41c-0.01-13.75-11.16-24.89-24.9-24.9h-41.51V48.46c-0.02-22.91-18.6-41.49-41.51-41.51
		H123.18c-22.91,0.02-41.49,18.6-41.51,41.51v346.59h16.6V89.97h249.05v16.6h-24.9c-13.75,0.01-24.89,11.16-24.9,24.9v48.46
		l-16.18,48.53c-1.45,4.35,0.9,9.05,5.25,10.5c1.86,0.62,3.88,0.56,5.71-0.17l40.02-16.01h15.01v132.82h-12.36l-45.91-63.54
		c-12.87-18.97-38.67-23.92-57.65-11.05c-18.97,12.87-23.92,38.67-11.05,57.64l45.1,66.75H98.27v-12.71h-16.6v70.82
		c0.02,22.91,18.6,41.49,41.51,41.51h298.85c4.59,0,8.3-3.71,8.3-8.3V297.51c-0.01-6.81-1.68-13.52-4.89-19.53l-29.43-55.18h9.41
		C419.18,222.78,430.32,211.64,430.33,197.89z M98.27,73.37v-24.9c0.02-13.75,11.16-24.88,24.9-24.9h199.24
		c13.75,0.02,24.88,11.16,24.9,24.9v24.9H98.27z M123.18,488.44c-13.75-0.02-24.88-11.16-24.9-24.9v-41.51H273
		c2.46,26.72,16.54,51.01,38.51,66.41H123.18z M410.8,285.79c1.92,3.6,2.93,7.63,2.93,11.72v190.93h-49.81
		c-40.64-0.05-73.79-32.52-74.69-73.14c0.42-2.17-0.04-4.4-1.28-6.23l-53.85-79.69c-7.79-11.33-4.93-26.85,6.4-34.64
		c11.33-7.79,26.83-4.93,34.63,6.4c0.08,0.11,0.17,0.23,0.24,0.34c0.05,0.07,0.1,0.15,0.16,0.22l48.46,67.08
		c1.56,2.16,4.06,3.43,6.72,3.43h24.9c4.59,0,8.3-3.71,8.3-8.3V222.79h13.28L410.8,285.79z M330.71,206.19
		c-1.06,0-2.11,0.2-3.08,0.59l-24.89,9.96l10.95-32.83c0.28-0.85,0.43-1.73,0.43-2.63v-49.81c0-4.59,3.71-8.3,8.3-8.3h83.02
		c4.59,0,8.3,3.71,8.3,8.3v66.41c0,4.59-3.71,8.3-8.3,8.3H330.71z"/>
	<path class="st0" d="M388.82,139.78h-49.81c-4.58,0-8.3,3.72-8.3,8.3s3.72,8.3,8.3,8.3h49.81c4.58,0,8.3-3.72,8.3-8.3
		S393.41,139.78,388.82,139.78z"/>
	<path class="st0" d="M388.82,172.98h-49.81c-4.58,0-8.3,3.72-8.3,8.3s3.72,8.3,8.3,8.3h49.81c4.58,0,8.3-3.72,8.3-8.3
		S393.41,172.98,388.82,172.98z"/>
</g>
</svg>
