<?xml version="1.0" encoding="utf-8"?>
<!-- Generator: Adobe Illustrator 21.1.0, SVG Export Plug-In . SVG Version: 6.00 Build 0)  -->
<svg version="1.1" id="Layer_1" width="16" heigth="16"  xmlns="http://www.w3.org/2000/svg" xmlns:xlink="http://www.w3.org/1999/xlink" x="0px" y="0px"
	 viewBox="0 0 512 512" style="enable-background:new 0 0 512 512;" xml:space="preserve">
<style type="text/css">
	.st0{fill:#FFFFFF;}
</style>
<path class="st0" d="M256,483.8c-7.3,0-14.3-2.6-19.8-7.4c-20.7-18.1-40.6-35.1-58.2-50.1l-0.1-0.1c-51.6-44-96.1-81.9-127.1-119.3
	C16.1,265.1,0,225.4,0,182.1C0,140,14.4,101.2,40.6,72.8C67.1,44.1,103.5,28.2,143,28.2c29.6,0,56.6,9.3,80.4,27.8
	c12,9.3,22.9,20.7,32.5,34c9.6-13.3,20.5-24.7,32.5-34c23.8-18.4,50.9-27.8,80.4-27.8c39.5,0,75.9,15.8,102.4,44.6
	C497.6,101.2,512,140,512,182.1c0,43.3-16.1,82.9-50.8,124.7c-31,37.4-75.5,75.4-127.1,119.3c-17.6,15-37.6,32-58.3,50.2
	C270.3,481.1,263.3,483.8,256,483.8z M143,58.2c-31.1,0-59.6,12.4-80.4,34.9C41.6,116,30,147.6,30,182.1c0,36.4,13.5,69,43.9,105.6
	c29.3,35.4,73,72.6,123.5,115.6l0.1,0.1c17.7,15.1,37.7,32.1,58.5,50.3c21-18.3,41-35.3,58.7-50.4c50.5-43.1,94.1-80.2,123.5-115.6
	c30.3-36.6,43.9-69.2,43.9-105.6c0-34.5-11.6-66.1-32.7-89C428.6,70.6,400,58.2,369,58.2c-22.8,0-43.7,7.2-62.1,21.5
	c-16.4,12.7-27.9,28.8-34.6,40c-3.5,5.8-9.5,9.2-16.3,9.2s-12.8-3.5-16.3-9.2c-6.7-11.2-18.2-27.3-34.6-40
	C186.7,65.5,165.8,58.2,143,58.2z"/>
</svg>
