<?xml version="1.0" encoding="utf-8"?>
<!-- Generator: Adobe Illustrator 21.1.0, SVG Export Plug-In . SVG Version: 6.00 Build 0)  -->
<svg version="1.1" id="Layer_1" width="35" heigth="26" xmlns="http://www.w3.org/2000/svg" xmlns:xlink="http://www.w3.org/1999/xlink" x="0px" y="0px"
	 viewBox="0 0 512 512" style="enable-background:new 0 0 512 512;" xml:space="preserve">
<style type="text/css">
	.st0{fill:#C1272D;}
</style>
<g id="_x30_25---Live-Recording" transform="translate(0 -1)">
	<path id="Shape" class="st0" d="M251.1,239.4H31.4C16.8,239.4,5,251.2,5,265.8v132.1c0,14.6,11.8,26.4,26.4,26.4h299.4
		c14.6,0,26.4-11.8,26.4-26.4v-52.3C357.3,287,309.7,239.4,251.1,239.4z M84.3,397.9h-44c-4.9,0-8.8-3.9-8.8-8.8V274.6
		c0-4.9,3.9-8.8,8.8-8.8s8.8,3.9,8.8,8.8v105.7h35.2c4.9,0,8.8,3.9,8.8,8.8S89.1,397.9,84.3,397.9z M128.3,389.1
		c0,4.9-3.9,8.8-8.8,8.8s-8.8-3.9-8.8-8.8V274.6c0-4.9,3.9-8.8,8.8-8.8s8.8,3.9,8.8,8.8V389.1z M225,276.6l-26.4,114.5
		c-0.9,4-4.5,6.8-8.6,6.8h-8.8c-4.1,0-7.7-2.8-8.6-6.8l-26.4-114.5c-1.1-4.7,1.9-9.5,6.6-10.6c4.7-1.1,9.5,1.9,10.6,6.6l22.2,96.4
		l22.2-96.4c0.7-3.1,3-5.5,6-6.4c3-0.9,6.3-0.2,8.6,2C224.7,270.3,225.7,273.5,225,276.6L225,276.6z M295.6,327.5
		c4.9,0,8.8,3.9,8.8,8.8s-3.9,8.8-8.8,8.8h-35.2v35.2h35.2c4.9,0,8.8,3.9,8.8,8.8s-3.9,8.8-8.8,8.8h-44c-4.9,0-8.8-3.9-8.8-8.8
		V274.6c0-4.9,3.9-8.8,8.8-8.8h44c4.9,0,8.8,3.9,8.8,8.8s-3.9,8.8-8.8,8.8h-35.2v44H295.6z"/>
	<path id="Shape_1_" class="st0" d="M254.6,168.4c29.8-35.1,76.6-50.8,121.5-40.5s80.3,44.7,91.9,89.2c11.6,44.6-2.7,91.9-37,122.6
		c-5.1,4.1-7.5,10.6-6.3,17c1.2,6.4,5.9,11.6,12.1,13.6s13,0.3,17.6-4.3c44.1-39.5,62.4-100.3,47.6-157.6
		c-14.8-57.3-60.4-101.6-118.1-114.7s-118,6.9-156.2,52.1c-4.4,4.8-5.8,11.5-3.6,17.6c2.1,6.1,7.4,10.6,13.8,11.6
		C244.2,176,250.6,173.5,254.6,168.4L254.6,168.4z"/>
	<path id="Shape_2_" class="st0" d="M317.6,205.3c21.1-15.1,50.1-12.7,68.4,5.8c18.3,18.5,20.4,47.5,5,68.4c-4,5.6-4.3,13-0.8,18.9
		c2.9,5.1,8.2,8.4,14.1,8.8c5.9,0.4,11.6-2.2,15.1-6.9c25.6-34.9,22.1-83.3-8.4-114s-78.8-34.8-113.9-9.6c-4.9,3.7-7.5,9.6-6.9,15.6
		s4.3,11.4,9.7,14.1C305.6,209.3,312.4,208.9,317.6,205.3L317.6,205.3z"/>
	<circle id="Oval" class="st0" cx="348.5" cy="248.2" r="17.6"/>
</g>
</svg>
