<?xml version="1.0" encoding="utf-8"?>
<!-- Generator: Adobe Illustrator 23.0.1, SVG Export Plug-In . SVG Version: 6.00 Build 0)  -->
<svg version="1.1" id="Layer_1" height="23" width="23" xmlns="http://www.w3.org/2000/svg" xmlns:xlink="http://www.w3.org/1999/xlink" x="0px" y="0px"
	 viewBox="0 0 512 512" style="enable-background:new 0 0 512 512;" xml:space="preserve">
<style type="text/css">
	.st0{fill:#646387;}
</style>
<g>
	<g>
		<g>
			<path class="st0" d="M13.96,371.33h484.08c7.16,0,12.96,5.8,12.96,12.96v30.75c0,7.16-5.8,12.96-12.96,12.96H13.96
				C6.8,428,1,422.2,1,415.04v-30.75C1,377.14,6.8,371.33,13.96,371.33z"/>
			<path class="st0" d="M13.96,229.67h362.08c7.16,0,12.96,5.8,12.96,12.96v30.75c0,7.16-5.8,12.96-12.96,12.96H13.96
				C6.8,286.33,1,280.53,1,273.37v-30.75C1,235.47,6.8,229.67,13.96,229.67z"/>
			<path class="st0" d="M13.96,88h484.08c7.16,0,12.96,5.8,12.96,12.96v30.75c0,7.16-5.8,12.96-12.96,12.96H13.96
				C6.8,144.67,1,138.86,1,131.71v-30.75C1,93.8,6.8,88,13.96,88z"/>
		</g>
	</g>
</g>
</svg>
