<?xml version="1.0" encoding="utf-8"?>
<!-- Generator: Adobe Illustrator 23.0.1, SVG Export Plug-In . SVG Version: 6.00 Build 0)  -->
<svg version="1.1" id="Capa_1" xmlns="http://www.w3.org/2000/svg" xmlns:xlink="http://www.w3.org/1999/xlink" x="0px" y="0px"
	 viewBox="0 0 384 384" style="enable-background:new 0 0 384 384;" xml:space="preserve">
<style type="text/css">
	.st0{fill:#FFFFFF;}
</style>
<g>
	<path class="st0" d="M378.9,186.13C375.77,88,296.45,8.68,198.32,5.55C144.93,3.85,94.97,24.18,58.05,62.29
		C22.56,98.93,3.91,147.24,5.54,198.32C8.68,296.45,88,375.77,186.13,378.9c2.04,0.07,4.07,0.1,6.1,0.1
		c51.02,0,98.67-20.19,134.17-56.84C361.89,285.52,380.54,237.21,378.9,186.13z M298.14,294.79
		c-28.03,28.94-65.64,44.87-105.92,44.87c-1.61,0-3.22-0.03-4.84-0.08c-77.44-2.47-140.05-65.08-142.52-142.52
		c-1.29-40.34,13.43-78.48,41.45-107.41c28.03-28.94,65.64-44.87,105.92-44.87c1.61,0,3.22,0.03,4.84,0.08
		c77.44,2.47,140.05,65.08,142.52,142.52C340.88,227.72,326.15,265.87,298.14,294.79z"/>
	<path class="st0" d="M253.49,181.37l-82.83-59.39c-8.83-6.34-21.13-0.02-21.13,10.85v118.78c0,10.87,12.3,17.19,21.13,10.85
		l82.82-59.39C260.91,197.75,260.91,186.7,253.49,181.37z"/>
</g>
</svg>
