<?xml version="1.0" encoding="utf-8"?>
<!-- Generator: Adobe Illustrator 23.0.1, SVG Export Plug-In . SVG Version: 6.00 Build 0)  -->
<svg version="1.1" id="Layer_1" height="18" width="18" xmlns="http://www.w3.org/2000/svg" xmlns:xlink="http://www.w3.org/1999/xlink" x="0px" y="0px"
	 viewBox="0 0 512 512" style="enable-background:new 0 0 512 512;" xml:space="preserve">
<style type="text/css">
	.st0{fill:#841245;}
</style>
<path class="st0" d="M256.48,442.13c-0.04,0-0.09,0-0.14,0c-15.42-0.11-151.73-1.35-190.35-11.79C39,423.08,17.7,401.8,10.42,374.8
	C0.32,336.87,0.96,263.83,1.03,257.99c-0.07-5.81-0.72-79.45,9.36-117.7c0.01-0.04,0.02-0.07,0.03-0.11
	c7.19-26.69,28.98-48.63,55.5-55.9c0.07-0.02,0.14-0.04,0.2-0.05c38.18-10.04,174.76-11.26,190.21-11.37h0.28
	c15.46,0.11,152.13,1.35,190.4,11.81c26.92,7.24,48.21,28.49,55.5,55.45c10.48,38.28,9.51,112.08,9.41,118.31
	c0.07,6.14,0.69,78.52-9.36,116.65c-0.01,0.04-0.02,0.07-0.03,0.11c-7.28,26.99-28.58,48.28-55.6,55.54
	c-0.04,0.01-0.07,0.02-0.11,0.03c-38.18,10.03-174.76,11.26-190.21,11.37C256.57,442.13,256.53,442.13,256.48,442.13z M48.98,150.53
	c-8.87,33.76-8.04,106.47-8.03,107.2v0.53c-0.27,20.16,0.67,78.56,8.03,106.21c3.57,13.24,14.08,23.73,27.4,27.32
	c28.5,7.71,139.52,10.13,180.09,10.42c40.68-0.28,151.87-2.64,180.15-10.04c13.28-3.59,23.75-14.05,27.35-27.31
	c7.37-28.06,8.3-86.17,8.03-106.21c0-0.21,0-0.42,0-0.63c0.37-20.41-0.35-79.48-8-107.36c-0.01-0.03-0.02-0.05-0.02-0.08
	c-3.59-13.3-14.1-23.79-27.42-27.38c-28.22-7.72-139.42-10.13-180.09-10.42c-40.66,0.28-151.73,2.64-180.1,10.03
	C63.31,126.44,52.56,137.3,48.98,150.53z M483.27,370h0.01H483.27z M205.6,338.33V176.65l139.73,80.84L205.6,338.33z"/>
</svg>
