<?xml version="1.0" encoding="utf-8"?>
<!-- Generator: Adobe Illustrator 23.0.1, SVG Export Plug-In . SVG Version: 6.00 Build 0)  -->
<svg version="1.1" id="Capa_1" height="18" width="18" xmlns="http://www.w3.org/2000/svg" xmlns:xlink="http://www.w3.org/1999/xlink" x="0px" y="0px"
	 viewBox="0 0 384 384" style="enable-background:new 0 0 384 384;" xml:space="preserve">
<style type="text/css">
	.st0{fill:#656287;}
</style>
<g id="surface1">
	<path class="st0" d="M263.64,226.7c44.6-62.97,29.68-150.18-33.29-194.76S80.17,2.26,35.58,65.24
		C-9.01,128.22,5.9,215.41,68.88,259.99c44.95,31.82,104.38,34.27,151.78,6.28l103.01,102.39c11.12,11.71,29.63,12.18,41.34,1.05
		c11.71-11.11,12.18-29.62,1.07-41.33c-0.35-0.37-0.69-0.71-1.07-1.07L263.64,226.7z M149.52,236.25
		c-49.76,0.01-90.11-40.3-90.14-90.07c-0.01-49.76,40.3-90.11,90.08-90.13c49.7-0.02,90.02,40.23,90.12,89.93
		c0.09,49.77-40.21,90.18-89.99,90.27C149.57,236.25,149.55,236.25,149.52,236.25z"/>
</g>
</svg>
