<?xml version="1.0" encoding="utf-8"?>
<!-- Generator: Adobe Illustrator 23.0.1, SVG Export Plug-In . SVG Version: 6.00 Build 0)  -->
<svg version="1.1" id="Layer_1" width="14" height="16" xmlns="http://www.w3.org/2000/svg" xmlns:xlink="http://www.w3.org/1999/xlink" x="0px" y="0px"
	 viewBox="0 0 512 512" style="enable-background:new 0 0 512 512;" xml:space="preserve">
<style type="text/css">
	.st0{fill:#1DA1F2;}
	.st1{fill:#FFFFFF;}
</style>
<g>
	<g>
		<path class="st0" d="M511.08,406.3c0,57.84-46.93,104.78-104.81,104.78H105.73c-57.88,0-104.81-46.94-104.81-104.78V105.73
			C0.92,47.85,47.85,0.92,105.73,0.92h300.54c57.88,0,104.81,46.93,104.81,104.81V406.3z"/>
		<path class="st1" d="M195.25,403.83c134.09,0,207.4-111.1,207.4-207.42c0-3.15-0.05-6.3-0.22-9.41
			c14.25-10.28,26.61-23.15,36.35-37.75c-13.05,5.79-27.12,9.71-41.84,11.48c15.05-9.03,26.58-23.31,32.06-40.32
			c-14.07,8.33-29.7,14.43-46.29,17.71c-13.33-14.19-32.22-23.04-53.21-23.04c-40.26,0-72.87,32.65-72.87,72.87
			c0,5.72,0.64,11.27,1.87,16.65c-60.57-3.08-114.32-32.07-150.25-76.17c-6.24,10.76-9.87,23.27-9.87,36.61
			c0,25.29,12.85,47.6,32.45,60.69c-11.95-0.38-23.22-3.65-33.03-9.13c-0.02,0.33-0.02,0.62-0.02,0.93
			c0,35.32,25.14,64.79,58.46,71.46c-6.08,1.66-12.54,2.57-19.18,2.57c-4.7,0-9.26-0.49-13.71-1.34c9.3,29,36.21,50.06,68.08,50.65
			c-24.94,19.56-56.38,31.21-90.53,31.21c-5.87,0-11.66-0.34-17.38-1.02C115.76,391.76,154.07,403.83,195.25,403.83"/>
	</g>
</g>
</svg>
