<?xml version="1.0" encoding="utf-8"?>
<!-- Generator: Adobe Illustrator 23.0.1, SVG Export Plug-In . SVG Version: 6.00 Build 0)  -->
<svg version="1.1" id="Layer_1" height="20" width="28" xmlns="http://www.w3.org/2000/svg" xmlns:xlink="http://www.w3.org/1999/xlink" x="0px" y="0px"
	 viewBox="0 0 512 512" style="enable-background:new 0 0 512 512;" xml:space="preserve">
<style type="text/css">
	.st0{fill:url(#SVGID_1_);}
</style>
<g id="Artwork_30">
	<g>
		<g>
			<linearGradient id="SVGID_1_" gradientUnits="userSpaceOnUse" x1="2208.6003" y1="270.243" x2="-1009.8308" y2="246.7508">
				<stop  offset="0" style="stop-color:#FBB03B"/>
				<stop  offset="1" style="stop-color:#29ABE2"/>
			</linearGradient>
			<path class="st0" d="M501.37,103.85c-18.07,8-37.44,13.43-57.81,15.85c20.79-12.45,36.71-32.2,44.25-55.66
				c-19.5,11.53-41.03,19.9-63.97,24.44c-18.37-19.6-44.5-31.8-73.48-31.8c-55.6,0-100.68,45.08-100.68,100.64
				c0,7.88,0.89,15.58,2.61,22.94c-83.66-4.2-157.84-44.28-207.48-105.18c-8.68,14.84-13.62,32.14-13.62,50.6
				c0,34.93,17.79,65.75,44.77,83.78c-16.5-0.55-32.01-5.09-45.6-12.63v1.26c0,48.76,34.71,89.45,80.74,98.71
				c-8.43,2.27-17.32,3.53-26.53,3.53c-6.5,0-12.79-0.64-18.95-1.87c12.82,40.02,49.98,69.12,94.02,69.92
				C125.23,395.36,81.8,411.4,34.64,411.4c-8.13,0-16.13-0.49-24.01-1.38c44.56,28.61,97.46,45.29,154.31,45.29
				c185.19,0,286.42-153.39,286.42-286.42l-0.34-13.03C470.8,141.75,487.91,124.03,501.37,103.85"/>
		</g>
	</g>
</g>
</svg>
