<?xml version="1.0" encoding="utf-8"?>
<!-- Generator: Adobe Illustrator 23.0.1, SVG Export Plug-In . SVG Version: 6.00 Build 0)  -->
<svg version="1.1" id="Layer_1" height="20" width="28" xmlns="http://www.w3.org/2000/svg" xmlns:xlink="http://www.w3.org/1999/xlink" x="0px" y="0px"
	 viewBox="0 0 512 512" style="enable-background:new 0 0 512 512;" xml:space="preserve">
<style type="text/css">
	.st0{fill:url(#SVGID_1_);}
</style>
<g>
	<linearGradient id="SVGID_1_" gradientUnits="userSpaceOnUse" x1="656.4036" y1="258.9222" x2="-2670.771" y2="234.6363">
		<stop  offset="0" style="stop-color:#FBB03B"/>
		<stop  offset="1" style="stop-color:#29ABE2"/>
	</linearGradient>
	<path class="st0" d="M499.84,136.59c-6.19-26.86-28.16-46.67-54.61-49.65c-62.63-6.97-126.03-7.03-189.15-6.97
		c-63.12-0.05-126.54,0-189.18,6.97c-26.42,2.99-48.4,22.79-54.56,49.65C3.53,174.86,3.43,216.61,3.43,256
		c0,39.39,0,81.14,8.81,119.41c6.16,26.86,28.13,46.67,54.59,49.63c62.63,7,126.03,7.05,189.15,7c63.15,0.05,126.54,0,189.15-7
		c26.45-2.96,48.42-22.77,54.61-49.63c8.81-38.27,8.83-80.02,8.83-119.41C508.57,216.61,508.65,174.86,499.84,136.59L499.84,136.59z
		 M190.82,334.39V167.34c53.52,27.94,106.71,55.68,160.58,83.8C297.7,278.99,244.49,306.57,190.82,334.39L190.82,334.39z
		 M190.82,334.39"/>
</g>
</svg>
